PathFileType	4	(X/Y/Z)	D:\TRACE\spot_10-12-23\spot_arm_motion_2_4-platform.trc
DataRate	CameraRate	NumFrames	NumMarkers	Units	OrigDataRate	OrigDataStartFrame	OrigNumFrames
100.00	100.00	      66	5	mm	100.00	5251	      7000
Frame#	Time	Left_Front			Right_Front			Left_Aft			Right_Aft			Post			
		X1	Y1	Z1	X2	Y2	Z2	X3	Y3	Z3	X4	Y4	Z4	X5	Y5	Z5	

5251	52.500	-741.64282	24.97392	-636.86652	830.84491	29.80094	-630.07379	-658.75012	-7.75772	500.42441	758.81091	-5.20868	586.74872	41.30951	771.63812	-934.30804	
5252	52.510	-740.89917	26.42931	-636.52759	831.73938	31.43140	-629.46600	-657.69525	-8.97085	500.83060	759.64703	-6.34172	587.11456	42.11938	773.92859	-932.27570	
5253	52.520	-740.08942	28.04209	-636.10333	832.57709	32.80251	-629.13531	-656.97107	-9.80632	500.98132	760.34674	-7.74214	587.46472	42.60765	776.14313	-930.21503	
5254	52.530	-739.27625	29.43114	-635.53857	833.37390	34.37098	-628.80219	-656.01160	-10.95678	501.86432	761.11279	-9.04112	587.79236	43.40036	778.20807	-928.04279	
5255	52.540	-738.55786	30.99392	-635.15350	834.21295	35.91915	-628.49438	-655.27722	-12.15566	501.94553	761.96082	-10.14437	587.87708	44.23683	780.32837	-925.81348	
5256	52.550	-737.95062	32.47180	-634.81256	834.73169	37.10938	-627.83911	-654.62836	-13.06847	502.38718	762.58612	-11.28467	588.29388	44.80079	782.54974	-923.63763	
5257	52.560	-737.01196	33.99594	-634.48114	835.64630	38.85008	-627.41919	-653.72107	-14.06499	502.51462	763.52863	-12.56524	588.72070	45.37403	784.45471	-921.56049	
5258	52.570	-736.33350	35.38522	-633.93420	836.23120	40.08469	-627.18536	-653.23865	-15.02643	502.88483	764.21198	-13.67834	588.96106	45.98771	786.47522	-919.38239	
5259	52.580	-735.52863	36.60788	-633.43268	836.98035	41.46278	-626.69293	-652.59344	-15.97445	502.99561	764.77020	-14.84285	589.17853	47.03133	788.48108	-917.30487	
5260	52.590	-735.02911	38.03734	-633.14594	837.28406	43.02116	-626.50562	-651.93549	-17.03463	503.31567	765.34570	-15.87558	589.46332	47.50829	790.37604	-915.22406	
5261	52.600	-734.53638	39.50647	-632.83307	838.05591	44.23566	-626.04602	-651.43396	-17.73788	503.60956	766.03607	-17.24503	589.81525	48.12218	792.29236	-913.18109	
5262	52.610	-734.07654	40.89730	-632.34808	838.56000	45.52037	-625.49036	-650.71930	-18.74677	503.87802	766.55890	-18.21120	589.90442	48.80342	794.26544	-911.28534	
5263	52.620	-733.45734	42.13265	-631.96564	839.27362	47.05791	-625.11121	-650.31335	-19.81813	504.05362	767.10657	-19.28409	590.24823	49.28188	796.22247	-909.56482	
5264	52.630	-732.91278	43.40230	-631.55298	839.77899	48.21941	-624.70947	-649.84460	-20.73881	504.32913	767.60406	-20.48316	590.52899	49.78752	798.00250	-907.77490	
5265	52.640	-732.48016	44.83023	-631.24255	840.20300	49.33629	-624.43774	-649.15814	-21.77684	505.01666	768.06372	-21.47506	590.84100	50.22089	799.90155	-905.93921	
5266	52.650	-732.02417	45.88954	-630.78259	840.46735	50.88279	-624.08716	-649.01935	-22.37289	504.87140	768.57538	-22.59826	591.02197	50.54006	801.62738	-904.41479	
5267	52.660	-731.67627	47.49099	-630.53125	840.77332	51.83957	-623.71716	-648.36737	-23.56236	505.22028	768.80035	-23.54432	591.14465	50.86804	803.39435	-902.70087	
5268	52.670	-731.49847	48.56870	-630.05524	841.25244	53.29327	-623.20563	-648.15643	-24.33980	505.64633	769.25153	-24.54319	591.47980	51.21284	805.16736	-900.84601	
5269	52.680	-731.12231	49.70559	-629.76508	841.44208	54.28064	-622.93994	-647.85980	-25.05350	505.80960	769.41754	-25.51955	591.60925	51.54329	806.79480	-899.11212	
5270	52.690	-730.88263	50.67508	-629.35669	842.00323	55.52855	-622.47815	-647.45734	-25.91459	506.08701	769.76904	-26.49933	591.78491	51.83631	808.27332	-897.54791	
5271	52.700	-730.81470	52.07365	-629.10565	842.04724	56.43218	-622.19147	-647.54944	-26.56070	506.06989	769.73724	-27.42909	592.01984	52.01392	809.93365	-895.68378	
5272	52.710	-730.58667	52.92185	-628.83472	842.09967	57.60809	-621.86377	-647.48871	-27.52915	506.30557	769.98096	-28.35804	592.25439	51.95980	811.43024	-893.96436	
5273	52.720	-730.58002	54.26723	-628.51660	842.25574	58.83940	-621.72174	-647.25952	-28.11401	506.53894	770.21954	-29.21722	592.56024	52.27299	812.94800	-892.34113	
5274	52.730	-730.45911	55.05302	-628.18164	842.26599	59.66934	-621.21204	-647.23151	-28.76442	506.73798	770.35144	-29.99264	592.68805	52.42532	814.48840	-890.69519	
5275	52.740	-730.52478	56.04399	-627.76959	842.18469	60.52648	-621.03699	-647.24933	-29.49737	506.84457	770.27081	-30.89834	592.89526	52.33232	815.75885	-889.22314	
5276	52.750	-730.35382	57.00190	-627.56726	842.14526	61.60186	-620.72076	-647.27747	-30.25833	506.94553	770.10834	-31.85332	592.96649	52.18013	816.78656	-887.98938	
5277	52.760	-730.54254	57.88878	-627.12634	842.25812	62.60344	-620.51563	-647.19281	-30.82425	507.19666	770.48242	-32.51267	593.24915	52.25341	818.33856	-886.56354	
5278	52.770	-730.26770	58.35770	-626.80109	842.20392	63.30472	-620.17023	-647.06921	-31.52136	507.45395	770.38239	-33.07046	593.31219	52.33838	819.37671	-885.39752	
5279	52.780	-730.43451	59.89352	-626.68805	842.21191	64.12591	-619.80823	-647.13110	-32.14245	507.61273	770.28772	-33.77325	593.52948	52.13668	820.72180	-884.33380	
5280	52.790	-730.57422	60.47133	-626.53394	842.15356	64.88221	-619.44019	-647.46167	-32.67951	507.66968	770.13843	-34.80721	593.69263	51.95004	821.85620	-883.17737	
5281	52.800	-730.83051	61.13175	-626.14288	841.84198	65.86375	-619.08380	-647.76080	-33.29694	507.81583	770.03656	-35.33536	593.75153	51.70676	823.07440	-882.07013	
5282	52.810	-731.32947	62.05941	-625.74060	841.32233	66.69823	-618.97540	-647.96222	-33.85439	507.94968	769.56219	-36.05584	594.01031	51.42261	824.19067	-880.99390	
5283	52.820	-731.64471	62.76609	-625.45697	841.00531	67.36569	-618.83362	-648.24042	-34.45173	508.05643	768.94928	-36.58490	594.04553	51.09312	825.11072	-879.92743	
5284	52.830	-731.78479	63.45675	-625.16101	840.64069	68.00309	-618.56146	-648.54987	-34.97434	508.20895	768.44653	-37.22735	594.07031	50.60963	826.39838	-878.89417	
5285	52.840	-732.28613	64.39901	-625.12573	840.36951	68.58631	-618.31281	-648.83185	-35.36834	508.32663	768.26294	-37.62518	594.26245	50.42097	827.08984	-877.55481	
5286	52.850	-732.41394	64.65078	-625.01776	840.19604	69.27525	-618.07404	-648.96912	-35.92152	508.87405	767.93689	-38.14635	594.39526	50.31319	827.72552	-876.50629	
5287	52.860	-732.82623	65.28147	-624.73206	839.90656	69.89915	-617.83533	-649.48633	-36.36800	508.92770	767.76227	-38.68149	594.48328	50.24156	828.46893	-875.58356	
5288	52.870	-733.03833	65.64016	-624.48511	839.70471	70.24686	-617.71674	-649.85187	-36.87400	509.01120	767.38416	-39.23002	594.69354	50.02564	829.23370	-874.71362	
5289	52.880	-733.72589	66.19144	-624.18488	839.10413	70.81943	-617.57892	-650.22375	-37.01873	509.03745	767.10425	-39.72871	594.75977	49.42073	829.93134	-873.92267	
5290	52.890	-734.07123	66.58059	-624.12488	838.40222	71.35873	-617.53680	-650.80127	-37.22361	508.87476	766.65167	-40.04757	594.82935	48.44811	830.52582	-873.24426	
5291	52.900	-734.50690	67.02176	-623.94843	837.97296	71.62725	-617.38800	-651.28937	-37.69307	509.25461	766.23340	-40.46468	594.88336	47.86442	831.15808	-872.65698	
5292	52.910	-735.07532	67.61699	-623.83942	837.40051	72.07490	-617.18909	-651.73926	-37.95988	509.29346	765.63898	-40.87069	594.89386	47.45161	831.87305	-872.00238	
5293	52.920	-735.52844	68.15127	-623.75348	836.92029	72.45681	-617.04883	-652.17908	-38.11240	509.33194	765.01080	-41.14333	594.91571	47.02610	832.57312	-871.61823	
5294	52.930	-736.02173	68.50257	-623.74133	836.58514	72.84509	-616.91101	-652.70306	-38.53099	509.34296	764.55853	-41.36179	594.95447	46.66925	833.02771	-871.30420	
5295	52.940	-736.51666	68.69361	-623.63324	836.16437	73.24039	-616.76703	-653.20178	-38.70382	509.26669	764.05890	-41.63229	595.07678	46.17381	833.38586	-870.93646	
5296	52.950	-737.23706	69.08136	-623.48749	835.75372	73.49989	-616.69946	-653.57660	-38.82488	509.35184	763.60754	-41.91573	595.17926	45.40327	833.79437	-870.48090	
5297	52.960	-737.58215	69.05254	-623.22357	834.97479	73.65881	-616.62701	-654.17413	-39.08424	509.31403	763.16412	-42.23412	595.14551	44.74558	834.05182	-870.01233	
5298	52.970	-738.21039	69.31110	-623.23395	834.32910	73.81084	-616.47845	-654.98047	-39.26963	509.32339	762.55762	-42.42231	595.09436	44.21656	834.24072	-869.64178	
5299	52.980	-738.85962	69.59579	-623.31696	833.79962	73.98803	-616.43762	-655.55481	-39.32140	509.41663	761.75348	-42.60111	595.10364	43.63586	834.45392	-869.26257	
5300	52.990	-739.28162	69.59914	-623.26233	833.34015	74.20493	-616.44769	-656.05847	-39.45440	509.48932	761.24591	-42.69384	595.12250	43.20314	834.54211	-869.06006	
5301	53.000	-740.17438	69.90557	-623.17401	832.86298	74.30756	-616.43427	-656.60583	-39.56299	509.45593	760.70502	-42.60680	595.12146	42.50581	834.76221	-868.81531	
5302	53.010	-740.72949	70.01260	-623.15649	831.96118	74.29186	-616.55060	-657.12366	-39.64229	509.41501	760.21948	-42.61293	595.19238	41.91777	834.80585	-868.59076	
5303	53.020	-741.27417	70.04314	-623.19049	831.16516	74.26701	-616.39410	-657.97479	-39.61964	509.45175	759.50439	-42.76793	595.18048	41.45615	834.88348	-868.47314	
5304	53.030	-741.94617	69.96944	-623.21906	830.71075	74.30121	-616.38666	-658.61877	-39.62690	509.45282	758.63336	-42.77658	595.16852	40.74840	834.90948	-868.67102	
5305	53.040	-742.58350	69.79424	-623.22186	830.23151	74.37521	-616.41571	-659.34296	-39.55760	509.28439	758.02838	-42.80453	595.22437	40.01855	835.07288	-868.75616	
5306	53.050	-743.57434	69.75335	-623.15863	829.49451	74.32227	-616.45673	-659.89966	-39.41254	509.27051	757.46960	-42.80493	595.26459	38.95623	835.01025	-869.09601	
5307	53.060	-744.23578	69.81367	-623.26672	828.38916	74.12405	-616.66376	-660.85254	-39.27852	509.29367	756.55048	-42.60618	595.20154	80.97708	758.27917	-886.66107	
5308	53.070	-744.75226	69.58549	-623.46112	827.57281	73.86074	-616.59070	-661.64624	-39.20193	509.31091	755.76392	-42.45993	595.05542	69.68982	777.42444	-882.26196	
5309	53.080	-745.57074	69.34698	-623.29797	827.16913	73.76698	-616.46100	-662.09912	-39.22792	509.32608	755.05457	-42.25517	595.14374	37.22740	834.04291	-869.56049	
5310	53.090	-746.43610	69.08290	-623.41174	826.37769	73.50561	-616.58667	-662.99744	-39.07367	509.43314	754.29834	-42.05393	595.13629	36.02511	833.92609	-870.11578	
5311	53.100	-747.16895	69.05661	-623.45581	825.42322	73.36823	-616.69678	-663.78387	-38.98565	509.33566	753.62518	-41.81366	595.15454	35.40131	833.57043	-870.40814	
5312	53.110	-748.04614	68.80145	-623.68658	824.67053	73.17054	-616.79553	-664.58740	-38.68170	509.17026	752.86053	-41.60116	595.02692	34.66655	833.21887	-870.70563	
5313	53.120	-748.68622	68.22842	-623.68976	823.90173	72.67810	-616.99994	-665.47827	-38.39813	509.10898	752.01215	-41.24181	594.95056	33.56215	832.67657	-871.23871	
5314	53.130	-749.63495	67.82130	-623.81903	822.98425	72.21898	-617.13098	-666.20789	-38.14822	509.07837	751.17371	-40.98192	595.02985	77.57848	756.78772	-888.47394	
5315	53.140	-750.43152	67.57148	-623.97437	822.11157	71.92457	-617.23090	-667.11359	-37.98077	509.12796	750.30121	-40.69071	594.96863	32.30204	831.73651	-872.11841	
5316	53.150	-751.42499	66.85952	-624.03064	821.45038	71.56671	-617.26270	-667.82330	-37.62830	508.96521	749.27716	-40.35751	594.87421	30.99268	830.96008	-872.99200	
